<?xml version="1.0" standalone="no"?>
<!DOCTYPE svg PUBLIC "-//W3C//DTD SVG 20010904//EN"
 "http://www.w3.org/TR/2001/REC-SVG-20010904/DTD/svg10.dtd">
<svg version="1.0" xmlns="http://www.w3.org/2000/svg"
 width="1536.000000pt" height="1024.000000pt" viewBox="0 0 1536.000000 1024.000000"
 preserveAspectRatio="xMidYMid meet">

<g transform="translate(0.000000,1024.000000) scale(0.100000,-0.100000)"
fill="currentColor" stroke="none">
<path d="M5920 8605 l0 -155 -142 0 -143 0 2 -747 3 -748 140 -3 140 -3 0
-149 0 -150 690 0 690 0 0 -150 0 -150 -150 0 -150 0 0 -150 0 -150 -150 0
-150 0 0 -145 0 -145 -135 0 -135 0 0 -90 0 -90 -75 0 -75 0 0 150 0 150 -150
0 -150 0 0 155 0 155 -145 0 -145 0 0 150 0 150 -295 0 -295 0 0 -150 0 -150
-150 0 -150 0 0 -155 0 -155 -145 0 -145 0 0 -150 0 -150 -145 0 -146 0 2
-147 1 -148 -143 -2 -144 -1 -3 -141 -3 -141 -464 0 -465 0 0 -640 0 -640
-765 0 -765 0 0 -135 0 -135 -135 0 -135 0 0 -380 0 -380 135 0 135 0 0 -140
0 -140 -135 0 -135 0 0 -260 0 -260 135 0 135 0 0 -175 0 -175 6150 0 6150 0
0 175 0 175 80 0 80 0 0 915 0 915 -885 0 -885 0 0 640 0 640 -230 0 -230 0 0
70 0 70 -150 0 -150 0 0 160 0 160 -140 0 -140 0 0 145 0 145 -150 0 -150 0 0
145 0 145 -145 0 -145 0 0 155 0 155 -145 0 -145 0 0 150 0 150 -145 0 -145 0
0 150 c0 136 -2 150 -17 151 -10 0 -75 0 -145 -1 l-128 -1 0 161 0 160 -140 0
-140 0 0 150 0 150 -160 0 -160 0 0 155 0 155 -285 0 -285 0 0 -155 0 -155
-150 0 -150 0 0 -150 0 -150 -150 0 -150 0 0 590 0 590 -150 0 -150 0 0 155 0
155 -835 0 -835 0 0 -155z m1668 -902 l-3 -748 -827 -2 -828 -1 0 749 0 749
830 0 830 0 -2 -747z m1474 -598 l-3 -155 161 0 160 0 0 -150 0 -150 140 0
140 0 0 -150 0 -150 150 0 150 0 0 -152 0 -153 140 3 140 3 0 -150 0 -151 143
0 142 0 -3 -150 -3 -150 150 0 151 0 0 -155 0 -155 145 0 145 0 0 -70 0 -70
-432 0 -433 0 3 75 4 75 -149 0 -148 0 -1 153 0 152 -142 3 -141 3 -3 147 -3
147 -137 3 -138 3 0 149 0 150 -160 0 -160 0 0 295 0 295 -145 0 -145 0 0 305
0 305 143 0 142 0 -3 -155z m-2620 -2102 c-62 -2 -161 -2 -220 0 -59 1 -8 3
113 3 121 0 169 -2 107 -3z m3746 0 c-21 -2 -55 -2 -75 0 -21 2 -4 4 37 4 41
0 58 -2 38 -4z m1669 -335 c-3 -8 -6 -5 -6 6 -1 11 2 17 5 13 3 -3 4 -12 1
-19z m-8540 -220 c-3 -7 -5 -2 -5 12 0 14 2 19 5 13 2 -7 2 -19 0 -25z m635
-383 c-2 -14 -6 -25 -8 -25 -2 0 -4 11 -4 25 0 14 4 25 9 25 4 0 6 -11 3 -25z
m2116 18 c-373 -2 -983 -2 -1355 0 -373 1 -68 2 677 2 745 0 1050 -1 678 -2z
m4640 0 c-357 -2 -939 -2 -1296 0 -356 1 -64 2 648 2 712 0 1004 -1 648 -2z
m690 -150 l-2 -158 -3 152 c-3 134 -6 152 -21 156 -12 3 -11 5 6 6 l22 1 -2
-157z m-7451 -45 c-2 -24 -4 -5 -4 42 0 47 2 66 4 43 2 -24 2 -62 0 -85z m0
-80 c-3 -7 -5 -2 -5 12 0 14 2 19 5 13 2 -7 2 -19 0 -25z m596 -25 c-112 -2
-294 -2 -405 0 -112 1 -21 2 202 2 223 0 314 -1 203 -2z m1705 0 c-273 -2
-723 -2 -1000 0 -277 1 -53 2 497 2 550 0 776 -1 503 -2z m2565 0 c-7 -2 -21
-2 -30 0 -10 3 -4 5 12 5 17 0 24 -2 18 -5z m135 0 c-21 -2 -57 -2 -80 0 -24
2 -7 4 37 4 44 0 63 -2 43 -4z m225 0 c-29 -2 -77 -2 -105 0 -29 2 -6 3 52 3
58 0 81 -1 53 -3z m235 0 c-32 -2 -86 -2 -120 0 -35 2 -9 3 57 3 66 0 94 -1
63 -3z m1494 0 c-266 -2 -698 -2 -960 0 -262 1 -45 2 483 2 528 0 743 -1 477
-2z m-8672 -453 l0 -120 50 0 50 0 0 -115 0 -115 -145 0 -145 0 0 115 0 115
-160 0 -160 0 0 -156 0 -155 78 2 77 2 -3 -96 -4 -97 181 0 181 0 0 -101 0
-100 48 2 c26 1 48 0 50 -4 1 -4 2 -115 2 -247 l0 -240 -50 0 -50 0 0 -105 0
-105 -325 0 -325 0 0 105 0 105 -50 0 -50 0 0 140 0 140 135 0 135 0 0 -110 0
-110 160 0 161 0 -3 111 -3 112 -70 1 -70 1 0 100 0 100 -143 0 -142 0 0 98 0
97 -80 0 -80 0 0 375 0 375 375 0 375 0 0 -120z m620 -700 l0 -820 -140 0
-140 0 0 820 0 820 140 0 140 0 0 -820z m1180 690 l0 -130 -170 0 -170 0 0
-690 0 -690 -140 0 -140 0 0 690 0 690 -182 0 -183 0 0 130 0 130 493 0 492 0
0 -130z m480 -680 c0 -445 0 -813 0 -817 0 -5 -61 -9 -135 -11 l-135 -3 0 821
0 820 135 0 135 0 0 -810z m1000 710 l0 -100 65 0 65 0 0 -616 0 -616 -65 4
-65 3 0 -107 0 -108 -340 0 -340 0 0 108 0 108 -60 -4 -60 -4 0 609 0 610 55
-5 55 -4 0 111 0 111 345 0 345 0 0 -100z m1195 -25 l0 -120 43 -3 42 -3 0
-110 0 -109 -140 0 -140 0 0 110 0 110 -170 0 c-93 0 -173 -1 -177 -2 -5 -2
-9 -67 -10 -145 l-2 -143 95 0 94 0 0 -100 0 -100 140 0 140 0 0 -100 0 -100
85 0 85 0 -2 -242 -3 -243 -47 1 -48 0 0 -108 0 -108 -375 0 -375 0 0 120 0
120 -50 0 -50 0 0 125 0 125 140 0 140 0 0 -115 0 -115 195 0 195 0 0 120 0
120 -90 0 -90 0 0 100 0 100 -160 0 -160 0 0 101 0 100 -85 -3 -85 -3 0 273 0
272 75 0 75 0 0 100 0 100 358 -2 357 -3 0 -120z m1165 5 l0 -120 50 0 50 0 0
-115 0 -115 -155 0 -155 0 0 115 0 115 -170 0 -170 0 0 -570 0 -570 190 0 190
0 0 210 0 210 -100 0 -100 0 0 115 0 115 235 0 235 0 0 -386 0 -385 -67 2 -68
3 -3 -72 -3 -72 -334 0 -335 0 0 108 0 107 -75 -3 -75 -4 0 611 0 612 76 -3
77 -3 -2 108 -2 107 355 0 356 0 0 -120z m580 -568 l0 -689 180 1 180 0 0 688
0 688 140 0 140 0 -2 -712 -3 -713 -73 0 -72 0 0 -107 0 -108 -315 0 -315 0 0
105 0 105 -70 0 -70 0 0 715 0 715 140 0 140 0 0 -688z m1627 571 l-2 -118 98
-3 97 -3 0 -700 0 -700 -141 3 -140 3 1 243 1 242 -196 0 -195 0 0 -245 0
-245 -135 0 -135 0 0 703 0 702 90 -3 90 -3 0 120 0 121 284 0 285 0 -2 -117z
m1223 6 l0 -111 60 4 60 3 0 -292 0 -293 -60 0 -60 0 0 -110 0 -110 -270 0
-270 0 0 -310 0 -310 -140 0 -140 0 0 820 0 820 410 0 410 0 0 -111z m1154 1
l1 -105 55 -1 55 -1 3 -606 2 -607 -60 0 -60 0 0 -105 0 -105 -344 0 -344 0 6
105 5 105 -72 0 -71 0 2 613 3 612 65 0 65 0 3 103 3 102 340 -2 341 -3 2
-105z m1156 -10 l0 -120 60 0 60 0 0 -117 0 -118 -155 3 -155 3 0 115 0 114
-166 -2 -165 -3 0 -150 0 -150 60 0 61 0 0 -87 0 -88 200 0 200 0 0 -111 0
-111 60 4 60 3 0 -247 0 -248 -60 0 -60 0 0 -105 0 -105 -350 0 -350 0 0 125
0 125 -60 0 -60 0 0 120 0 120 148 0 147 0 -3 -110 -4 -110 176 0 176 0 0 110
0 110 -95 0 -95 0 0 105 0 105 -155 0 -155 0 0 105 0 105 -75 0 -75 0 2 257 3
257 68 -3 67 -2 0 110 0 111 345 0 345 0 0 -120z"/>
<path d="M8790 6986 c0 -286 -2 -274 57 -270 18 1 31 -2 28 -6 -3 -4 2 -10 10
-13 8 -4 12 -1 9 7 -3 9 10 12 48 12 l53 1 0 45 c0 41 -2 45 -21 43 -21 -2
-27 15 -12 31 4 3 4 12 1 20 -3 8 0 14 6 14 6 0 11 5 11 10 0 6 -12 3 -27 -7
l-28 -17 24 27 c13 14 28 24 34 20 6 -3 7 -1 3 5 -10 17 -46 15 -46 -2 0 -8
-9 -14 -19 -13 -11 0 -17 5 -15 9 3 5 10 5 16 2 7 -4 8 -2 4 4 -12 20 -30 13
-43 -15 -10 -21 -10 -29 0 -36 9 -6 8 -7 -3 -4 -8 2 -15 10 -15 18 0 14 -14
29 -27 29 -5 0 -8 -5 -8 -11 0 -5 4 -7 10 -4 6 3 7 -1 4 -9 -3 -9 -11 -16 -17
-16 -6 0 -7 3 -4 7 4 3 2 12 -4 20 -9 10 -8 13 0 13 7 0 9 5 6 10 -4 6 -3 10
2 9 21 -4 25 2 9 14 -17 13 -17 14 -1 14 9 0 21 -12 26 -26 8 -20 12 -22 19
-11 6 9 6 16 0 18 -6 2 -10 10 -10 18 0 8 -5 14 -11 14 -5 0 -7 5 -4 10 9 15
-2 12 -32 -7 -21 -14 -25 -14 -21 -3 3 8 11 14 17 13 6 -2 11 2 11 7 0 6 -4
10 -10 10 -5 0 -10 5 -10 11 0 5 5 7 11 3 8 -4 9 1 4 16 -5 16 -4 20 5 15 6
-4 9 -16 7 -27 -4 -14 -2 -18 9 -14 10 4 20 -5 30 -29 15 -36 29 -45 37 -22 4
10 7 10 18 0 15 -15 53 -17 44 -3 -3 6 -2 10 4 10 16 0 22 -18 9 -24 -7 -3 2
-4 20 -2 17 3 30 1 27 -4 -3 -5 1 -11 7 -14 7 -3 4 -4 -8 -1 -13 4 -26 -1 -35
-12 -11 -15 -11 -16 1 -5 20 17 35 15 20 -3 -9 -10 -9 -15 -1 -15 6 0 11 5 11
10 0 6 10 9 23 9 16 -1 18 -2 5 -6 -10 -2 -18 -13 -18 -24 0 -14 -4 -18 -12
-13 -9 5 -9 2 1 -9 7 -9 20 -17 28 -17 12 0 12 -2 -1 -15 -17 -18 -36 -20 -36
-3 0 6 -3 8 -6 5 -4 -4 -2 -12 4 -19 6 -7 10 -17 10 -23 -1 -10 43 -37 49 -31
9 8 -11 35 -21 29 -8 -4 -8 -3 0 6 9 10 17 10 32 2 14 -7 23 -8 27 -1 6 9 -1
14 -17 11 -5 0 -8 3 -8 9 0 6 5 10 11 10 7 0 5 10 -5 25 -9 14 -12 25 -6 25 5
0 10 -4 10 -10 0 -16 17 -11 24 7 4 9 2 21 -4 27 -7 7 -10 6 -10 -2 0 -7 -5
-12 -11 -12 -5 0 -7 5 -4 10 3 6 1 10 -6 10 -8 0 -8 4 1 15 10 13 9 15 -10 15
-13 0 -21 3 -17 6 3 4 48 6 98 5 120 -2 112 6 -11 11 l-95 4 -3 157 -3 157
-129 0 -130 0 0 -264z m220 237 c0 -3 -7 -3 -15 1 -11 4 -15 -2 -15 -20 0 -21
-2 -23 -14 -12 -10 9 -11 15 -2 20 6 4 7 8 1 8 -5 0 -4 4 4 9 14 9 41 4 41 -6z
m-120 -17 c0 -2 -11 -11 -24 -20 -19 -12 -27 -13 -32 -3 -4 6 -4 9 1 5 4 -4
17 -1 29 7 21 16 26 18 26 11z m140 -21 c-6 -15 -6 -26 1 -30 5 -4 6 -11 3
-17 -4 -6 -7 -26 -6 -45 1 -20 -3 -33 -11 -33 -9 0 -8 -3 1 -9 11 -6 9 -9 -5
-13 -31 -8 -49 13 -49 57 0 30 -3 39 -14 37 -12 -3 -13 -1 -2 10 10 10 17 10
35 -1 12 -8 19 -10 15 -6 -4 5 -3 14 4 22 6 7 8 16 5 20 -4 3 1 12 11 19 23
18 23 18 12 -11z m-90 -7 c0 -6 -6 -5 -15 2 -8 7 -15 14 -15 16 0 2 7 1 15 -2
8 -4 15 -11 15 -16z m-74 -42 c1 -7 -4 -13 -12 -13 -9 0 -11 4 -4 12 5 7 8 15
5 18 -3 4 -2 5 2 2 4 -3 8 -11 9 -19z m34 -6 c0 -5 -2 -10 -4 -10 -3 0 -8 5
-11 10 -3 6 -1 10 4 10 6 0 11 -4 11 -10z m34 -51 c-3 -5 -10 -7 -15 -3 -5 3
-7 10 -3 15 3 5 10 7 15 3 5 -3 7 -10 3 -15z m81 -54 c16 0 20 -7 21 -32 0
-22 -4 -33 -13 -33 -8 0 -11 -4 -8 -10 10 -15 -11 -12 -25 4 -6 8 -17 13 -25
10 -7 -3 -16 -1 -20 5 -4 7 0 8 11 4 12 -4 15 -3 10 5 -9 16 7 15 22 0 9 -9
12 -8 12 5 0 9 8 17 18 17 14 0 15 2 2 9 -8 6 -17 8 -21 5 -4 -2 -13 4 -20 13
-12 14 -12 16 1 8 8 -5 24 -9 35 -10z m-40 -15 c3 -5 1 -10 -4 -10 -6 0 -11 5
-11 10 0 6 2 10 4 10 3 0 8 -4 11 -10z m-51 -29 c-10 -10 -23 -16 -28 -13 -5
3 2 11 15 18 33 18 36 17 13 -5z m-77 -144 c16 6 26 -14 11 -24 -22 -13 -35
-11 -34 6 0 9 -4 15 -9 14 -6 -1 -12 7 -12 19 -2 20 -2 20 15 0 9 -10 22 -17
29 -15z m73 23 c0 -5 -4 -10 -10 -10 -5 0 -10 5 -10 10 0 6 5 10 10 10 6 0 10
-4 10 -10z m160 0 c0 -5 -5 -10 -11 -10 -5 0 -7 -6 -3 -12 4 -7 3 -9 -1 -5
-15 13 -14 37 1 37 8 0 14 -4 14 -10z m-160 -40 c-12 -8 -12 -10 -1 -10 8 0
12 -2 10 -5 -3 -2 -15 -2 -28 2 -17 4 -19 8 -9 14 7 5 20 9 28 9 13 0 13 -1 0
-10z m-66 -46 c3 -8 2 -12 -4 -9 -6 3 -10 10 -10 16 0 14 7 11 14 -7z m81 7
c-3 -5 9 -21 27 -36 18 -15 26 -24 18 -20 -8 5 -25 17 -36 27 -13 12 -24 16
-28 9 -4 -5 2 -14 11 -20 10 -6 13 -11 7 -11 -6 0 -17 7 -24 15 -11 13 -10 18
6 30 22 17 27 18 19 6z m42 -13 c-3 -8 -6 -5 -6 6 -1 11 2 17 5 13 3 -3 4 -12
1 -19z"/>
<path d="M9010 7130 c0 -11 2 -20 4 -20 2 0 6 9 9 20 3 11 1 20 -4 20 -5 0 -9
-9 -9 -20z"/>
<path d="M8984 7091 c1 -24 3 -27 19 -17 15 10 15 12 2 22 -8 6 -12 14 -8 17
3 4 2 7 -4 7 -6 0 -10 -13 -9 -29z"/>
<path d="M8840 6819 c0 -5 5 -7 10 -4 6 3 10 8 10 11 0 2 -4 4 -10 4 -5 0 -10
-5 -10 -11z"/>
<path d="M9290 6929 l-35 -6 35 -3 c19 -1 40 -2 47 -1 6 1 13 -6 15 -16 3 -13
5 -11 9 8 6 28 -4 30 -71 18z"/>
<path d="M9275 6900 c-4 -6 1 -7 11 -3 13 5 15 3 9 -7 -5 -8 -3 -11 6 -8 8 3
19 -4 26 -16 12 -20 12 -19 13 9 0 26 -4 30 -30 32 -16 1 -32 -2 -35 -7z"/>
<path d="M9150 6891 c0 -6 4 -12 8 -15 5 -3 9 1 9 9 0 8 -4 15 -9 15 -4 0 -8
-4 -8 -9z"/>
<path d="M9270 6855 c-7 -8 -9 -15 -4 -15 5 0 1 -7 -10 -15 -18 -13 -18 -14 2
-12 11 0 18 5 16 9 -3 4 1 8 8 8 9 0 9 3 -2 10 -13 8 -12 10 3 10 9 0 17 5 17
10 0 15 -16 12 -30 -5z"/>
<path d="M9320 6829 c0 -5 -4 -7 -10 -4 -5 3 -7 0 -4 -9 3 -8 13 -17 22 -21
13 -5 14 -3 5 6 -6 6 -9 18 -6 25 3 8 2 14 -1 14 -3 0 -6 -5 -6 -11z"/>
<path d="M9344 6833 c3 -6 7 -50 9 -97 1 -47 6 -86 11 -86 14 0 1 169 -14 183
-9 8 -11 8 -6 0z"/>
<path d="M9177 6819 c7 -7 15 -10 18 -7 3 3 -2 9 -12 12 -14 6 -15 5 -6 -5z"/>
<path d="M9186 6791 c-5 -7 -18 -17 -30 -22 -19 -8 -19 -9 -1 -7 11 2 26 -1
33 -6 10 -6 10 -10 -4 -20 -15 -11 -15 -13 0 -13 15 0 20 10 17 31 -1 4 4 15
11 24 8 10 9 13 1 9 -6 -4 -13 -2 -15 5 -3 9 -6 9 -12 -1z"/>
<path d="M9000 6769 c0 -5 5 -7 10 -4 6 3 10 8 10 11 0 2 -4 4 -10 4 -5 0 -10
-5 -10 -11z"/>
<path d="M9020 6735 c7 -9 15 -13 17 -11 7 7 -7 26 -19 26 -6 0 -6 -6 2 -15z"/>
<path d="M9090 6742 c1 -9 30 -48 30 -40 0 4 3 13 6 21 3 9 -3 16 -15 20 -12
3 -21 2 -21 -1z"/>
<path d="M8790 6699 c0 -5 5 -7 10 -4 6 3 10 8 10 11 0 2 -4 4 -10 4 -5 0 -10
-5 -10 -11z"/>
<path d="M9036 6685 c-20 -15 -20 -15 0 -15 12 0 21 7 21 15 0 8 -1 15 -1 15
-1 0 -10 -7 -20 -15z"/>
<path d="M8814 6679 c-16 -4 22 -7 84 -8 61 0 112 2 112 7 0 9 -154 10 -196 1z"/>
<path d="M9082 6363 l-2 -293 64 0 c55 0 64 3 62 18 0 10 5 16 14 14 11 -3 9
2 -5 18 -14 15 -15 19 -4 15 9 -3 16 0 16 7 0 8 -7 14 -16 14 -9 1 -23 3 -31
5 -8 2 -14 -2 -12 -8 1 -7 -3 -13 -9 -13 -6 0 -9 7 -5 15 6 17 -29 22 -39 5
-16 -25 -23 7 -21 88 4 104 3 99 18 84 7 -7 19 -12 28 -12 9 1 6 6 -10 14 -14
8 -27 13 -30 11 -9 -6 -8 169 1 181 7 9 32 11 58 5 2 -1 -2 -8 -9 -17 -11 -12
-11 -17 1 -27 8 -7 11 -8 7 -3 -4 5 -3 15 3 23 9 10 8 18 -2 31 -13 15 -12 16
4 3 14 -11 17 -11 17 1 0 7 -9 14 -20 15 -11 1 -20 -2 -20 -7 0 -5 -6 -7 -14
-4 -8 3 -18 -1 -22 -8 -6 -8 -11 11 -15 52 -3 36 -6 -67 -7 -227z m33 -243
c-3 -4 2 -10 10 -14 8 -3 15 -11 15 -18 0 -10 -2 -10 -9 1 -5 7 -13 11 -19 7
-10 -6 -24 29 -15 38 8 8 24 -4 18 -14z m89 -11 c-5 -9 -55 -2 -67 10 -7 7 -3
8 10 5 12 -3 24 -1 27 5 5 8 11 7 20 -2 8 -6 12 -15 10 -18z m-17 -25 c-3 -3
-12 -4 -19 -1 -8 3 -5 6 6 6 11 1 17 -2 13 -5z"/>
<path d="M9120 6618 c0 -4 8 -8 18 -9 10 0 12 -3 5 -6 -7 -2 -13 -9 -13 -15 0
-7 5 -6 14 2 8 6 13 17 10 24 -5 14 -34 18 -34 4z"/>
<path d="M9183 6615 c0 -8 4 -15 9 -15 4 0 8 7 8 15 0 8 -4 15 -8 15 -5 0 -9
-7 -9 -15z"/>
<path d="M9370 6623 c0 -5 61 -7 135 -5 l136 3 -7 -84 c-3 -48 -2 -87 3 -90 5
-3 10 35 12 89 l2 94 -140 0 c-78 0 -141 -3 -141 -7z"/>
<path d="M9416 6582 c-3 -5 1 -9 9 -9 8 0 12 4 9 9 -3 4 -7 8 -9 8 -2 0 -6 -4
-9 -8z"/>
<path d="M9495 6561 c-3 -5 -1 -12 5 -16 5 -3 10 1 10 9 0 18 -6 21 -15 7z"/>
<path d="M9183 6531 c-6 -17 -7 -35 -2 -42 7 -11 9 -10 9 4 0 10 4 16 8 13 5
-3 6 8 4 25 -2 16 -5 29 -6 29 -1 0 -7 -13 -13 -29z"/>
<path d="M9241 6544 c0 -11 3 -14 6 -6 3 7 2 16 -1 19 -3 4 -6 -2 -5 -13z"/>
<path d="M9546 6552 c-2 -4 6 -8 19 -8 13 0 21 4 19 8 -3 4 -11 8 -19 8 -8 0
-16 -4 -19 -8z"/>
<path d="M9266 6531 c-3 -5 2 -15 12 -22 15 -12 16 -12 5 2 -7 9 -10 19 -6 22
3 4 4 7 0 7 -3 0 -8 -4 -11 -9z"/>
<path d="M9540 6522 c-8 -4 -16 -15 -16 -24 -2 -24 1 -23 20 7 9 14 15 25 14
24 -2 0 -10 -3 -18 -7z"/>
<path d="M9580 6520 c0 -5 5 -10 11 -10 5 0 7 5 4 10 -3 6 -8 10 -11 10 -2 0
-4 -4 -4 -10z"/>
<path d="M9240 6500 c0 -5 5 -10 11 -10 5 0 7 5 4 10 -3 6 -8 10 -11 10 -2 0
-4 -4 -4 -10z"/>
<path d="M9123 6488 c4 -10 2 -18 -4 -18 -6 0 -7 -4 -4 -10 3 -5 10 -10 15
-10 10 0 5 39 -6 49 -4 3 -4 -2 -1 -11z"/>
<path d="M9199 6453 c-13 -16 -12 -17 4 -4 16 13 21 21 13 21 -2 0 -10 -8 -17
-17z"/>
<path d="M9271 6444 c0 -11 3 -14 6 -6 3 7 2 16 -1 19 -3 4 -6 -2 -5 -13z"/>
<path d="M9550 6450 c-13 -8 -12 -10 3 -10 9 0 17 5 17 10 0 12 -1 12 -20 0z"/>
<path d="M9481 6434 c0 -11 3 -14 6 -6 3 7 2 16 -1 19 -3 4 -6 -2 -5 -13z"/>
<path d="M9118 6433 c7 -3 16 -2 19 1 4 3 -2 6 -13 5 -11 0 -14 -3 -6 -6z"/>
<path d="M9146 6417 c-5 -17 -8 -19 -15 -8 -5 8 -11 9 -15 3 -3 -6 0 -13 6
-15 10 -4 10 -6 0 -6 -7 -1 -10 -5 -7 -11 3 -6 16 1 29 15 24 26 43 34 30 13
-5 -7 -3 -8 6 -3 10 6 12 4 7 -9 -5 -12 -3 -16 5 -14 7 3 14 14 14 26 1 12 -3
19 -7 16 -5 -3 -17 0 -28 5 -15 9 -20 7 -25 -12z"/>
<path d="M9400 6421 c0 -6 4 -13 10 -16 6 -3 7 1 4 9 -7 18 -14 21 -14 7z"/>
<path d="M9240 6410 c0 -4 7 -7 15 -6 23 3 26 12 5 13 -11 1 -20 -2 -20 -7z"/>
<path d="M9638 6390 c-7 -24 -3 -38 8 -28 3 4 4 17 2 30 l-3 23 -7 -25z"/>
<path d="M9184 6352 c-9 -5 -8 -10 1 -19 11 -10 13 -9 12 7 -1 11 -1 20 -2 20
0 0 -5 -4 -11 -8z"/>
<path d="M9315 6350 c3 -5 8 -10 11 -10 2 0 4 5 4 10 0 6 -5 10 -11 10 -5 0
-7 -4 -4 -10z"/>
<path d="M9643 6335 c0 -6 47 -9 124 -8 101 1 122 -1 113 -12 -8 -9 -7 -17 5
-28 11 -12 12 -17 2 -20 -9 -4 -9 -6 0 -6 7 -1 17 8 23 19 22 41 30 6 27 -125
-1 -73 1 -131 6 -128 4 2 7 73 7 158 l0 154 -153 3 c-98 2 -154 -1 -154 -7z
m297 -21 c0 -8 -4 -12 -10 -9 -5 3 -10 10 -10 16 0 5 5 9 10 9 6 0 10 -7 10
-16z m-29 -17 c-8 -8 -14 -7 -23 2 -10 11 -10 13 0 7 6 -4 12 -2 12 4 0 6 5 8
11 4 8 -4 8 -9 0 -17z"/>
<path d="M9110 6300 c0 -4 7 -7 15 -6 23 3 26 12 5 13 -11 1 -20 -2 -20 -7z"/>
<path d="M9175 6300 c-7 -11 22 -26 32 -16 4 3 -2 6 -13 6 -16 0 -17 2 -4 10
9 6 10 10 3 10 -6 0 -15 -5 -18 -10z"/>
<path d="M9153 6273 c-23 -8 -14 -18 16 -18 16 0 33 4 38 9 5 5 3 6 -5 2 -7
-4 -18 -3 -25 2 -7 5 -18 7 -24 5z"/>
<path d="M9117 6229 c3 -10 14 -21 24 -24 11 -4 17 -11 14 -16 -4 -5 1 -9 9
-9 9 0 13 6 10 14 -3 8 -1 17 5 21 6 3 11 -1 11 -9 0 -9 4 -16 8 -16 9 0 9 36
0 45 -3 3 -11 -1 -18 -10 -16 -19 -30 -19 -30 -1 0 7 -8 16 -19 19 -14 3 -17
0 -14 -14z"/>
<path d="M9796 6237 c3 -10 9 -15 12 -12 3 3 0 11 -7 18 -10 9 -11 8 -5 -6z"/>
<path d="M9813 6203 c-7 -3 -13 -9 -13 -14 0 -4 8 -5 17 -2 13 5 15 2 10 -11
-4 -10 -3 -15 3 -11 12 7 13 32 3 38 -5 2 -14 2 -20 0z"/>
<path d="M9896 6195 c4 -8 8 -15 10 -15 2 0 4 7 4 15 0 8 -4 15 -10 15 -5 0
-7 -7 -4 -15z"/>
<path d="M9115 6190 c4 -6 11 -8 16 -5 14 9 11 15 -7 15 -8 0 -12 -5 -9 -10z"/>
<path d="M9246 6185 c-11 -9 -14 -15 -7 -15 7 0 19 7 27 15 20 19 5 19 -20 0z"/>
<path d="M9890 6160 c0 -5 7 -7 15 -4 8 4 15 8 15 10 0 2 -7 4 -15 4 -8 0 -15
-4 -15 -10z"/>
<path d="M9278 6147 c-7 -8 -20 -11 -28 -9 -11 4 -11 2 2 -11 20 -20 29 -22
26 -4 -2 7 5 11 17 10 11 -1 14 0 7 3 -6 3 -10 10 -6 15 8 13 -3 11 -18 -4z"/>
<path d="M9321 6124 c0 -11 3 -14 6 -6 3 7 2 16 -1 19 -3 4 -6 -2 -5 -13z"/>
<path d="M9900 6130 c-9 -6 -10 -10 -3 -10 6 0 15 5 18 10 8 12 4 12 -15 0z"/>
<path d="M9299 6107 c6 -8 8 -17 4 -20 -3 -4 1 -7 10 -7 15 0 15 3 5 20 -7 11
-17 20 -22 20 -4 0 -3 -6 3 -13z"/>
<path d="M9240 6089 c0 -11 27 -12 34 -1 2 4 -4 9 -15 9 -10 1 -19 -2 -19 -8z"/>
<path d="M9368 6073 c7 -3 16 -2 19 1 4 3 -2 6 -13 5 -11 0 -14 -3 -6 -6z"/>
<path d="M10087 6023 c122 -3 132 -5 130 -23 -2 -25 -34 -33 -48 -12 -8 14 -9
13 -4 -6 4 -13 2 -29 -4 -36 -8 -9 -7 -13 4 -13 8 0 12 4 10 8 -6 10 24 33 32
25 14 -14 11 -36 -5 -36 -14 0 -14 -2 -3 -9 17 -11 23 -142 7 -153 -7 -5 -4
-8 7 -8 15 0 17 13 17 135 l0 135 -137 -2 -138 -2 132 -3z"/>
<path d="M9405 5920 c-3 -5 -1 -10 4 -10 6 0 11 5 11 10 0 6 -2 10 -4 10 -3 0
-8 -4 -11 -10z"/>
<path d="M9435 5910 c-3 -5 -2 -10 4 -10 11 0 9 -19 -3 -39 -6 -10 -5 -12 2
-7 7 4 12 3 12 -3 0 -5 -5 -13 -11 -17 -6 -3 -9 -17 -7 -29 3 -16 1 -22 -8
-18 -6 2 -15 0 -19 -6 -4 -8 38 -11 136 -11 153 0 187 10 43 13 -62 1 -88 6
-90 15 -2 8 -1 9 3 1 4 -8 13 -4 25 12 11 13 17 18 13 10 -7 -13 10 -31 30
-31 6 0 4 4 -4 9 -8 5 -10 14 -6 21 6 9 12 6 22 -11 l13 -24 -2 25 c-2 19 -8
24 -26 23 -12 -2 -22 2 -22 8 0 8 -5 7 -15 -1 -8 -7 -15 -8 -15 -3 0 6 -11 9
-25 8 -29 -4 -32 7 -9 26 14 12 14 14 -6 21 -12 4 -18 12 -15 18 3 5 2 10 -4
10 -5 0 -13 -4 -16 -10z"/>
<path d="M9412 5825 c0 -16 2 -22 5 -12 2 9 2 23 0 30 -3 6 -5 -1 -5 -18z"/>
<path d="M9600 5835 c0 -8 29 -12 39 -5 9 5 4 8 -13 8 -14 0 -26 -2 -26 -3z"/>
<path d="M9604 5808 c3 -15 26 -23 26 -8 0 6 -4 9 -9 6 -5 -4 -12 -1 -14 4 -3
6 -4 5 -3 -2z"/>
<path d="M9728 5808 c10 -13 10 -17 0 -21 -9 -4 -9 -6 -1 -6 20 -2 24 16 5 30
-15 13 -16 12 -4 -3z"/>
<path d="M9682 5618 l-2 -147 148 -3 c120 -2 150 0 162 12 8 8 11 12 6 8 -16
-12 -26 -9 -26 8 0 8 4 13 9 9 5 -3 12 -1 16 5 11 17 -16 11 -42 -10 -25 -19
-59 -28 -49 -12 2 4 -7 8 -22 9 -24 2 -24 1 -7 -7 16 -7 14 -9 -14 -9 -24 -1
-32 2 -25 9 6 6 8 33 4 63 -7 64 -3 85 16 89 12 2 11 7 -5 20 -20 17 -21 17
-19 0 3 -35 -2 -52 -16 -52 -8 0 -17 -10 -19 -22 -3 -13 -5 -8 -4 12 1 24 -3
34 -12 32 -7 -1 -10 2 -6 8 3 6 10 8 14 6 4 -3 12 4 19 15 7 11 8 19 2 19 -5
0 -10 -4 -10 -10 0 -17 -26 -11 -45 10 -9 10 -15 28 -13 38 3 12 0 19 -9 19
-9 0 -11 -7 -7 -21 4 -12 7 -26 7 -33 0 -7 4 -10 9 -7 4 3 5 -3 1 -12 -5 -13
-3 -15 7 -9 9 6 11 4 5 -5 -6 -10 -11 -9 -21 4 -7 10 -18 15 -24 11 -9 -6 -9
-2 -1 14 9 17 9 20 -3 15 -11 -4 -16 4 -19 33 -2 21 -4 -28 -5 -109z m42 6 c7
-19 2 -18 -19 6 -16 17 -16 20 -3 15 9 -4 19 -13 22 -21z m46 -9 c9 -10 9 -15
1 -15 -6 0 -11 5 -11 11 0 5 -4 7 -10 4 -5 -3 -10 -1 -10 4 0 16 16 13 30 -4z
m-16 -26 c3 -3 -5 -5 -19 -5 -13 0 -22 3 -19 7 4 8 30 6 38 -2z m-34 -35 c0
-8 -6 -11 -15 -8 -8 4 -15 9 -15 13 0 4 7 8 15 8 8 0 15 -6 15 -13z m33 -24
c-3 -11 -10 -23 -16 -27 -5 -3 -8 -2 -5 3 3 5 8 17 11 27 9 24 16 22 10 -3z
m42 -20 c3 -5 -1 -10 -10 -10 -9 0 -13 5 -10 10 3 6 8 10 10 10 2 0 7 -4 10
-10z"/>
<path d="M10243 5733 c4 -3 63 -6 132 -5 l125 2 0 -145 c0 -80 -4 -145 -8
-145 -5 0 -7 -13 -4 -30 2 -16 7 -30 11 -30 11 0 29 50 20 56 -5 3 -9 72 -9
155 l0 149 -137 0 c-75 0 -133 -3 -130 -7z m272 -303 c3 -5 1 -10 -4 -10 -6 0
-11 5 -11 10 0 6 2 10 4 10 3 0 8 -4 11 -10z"/>
<path d="M10012 5646 c7 -8 15 -12 17 -11 5 6 -10 25 -20 25 -5 0 -4 -6 3 -14z"/>
<path d="M9805 5640 c-3 -5 -1 -10 4 -10 6 0 11 5 11 10 0 6 -2 10 -4 10 -3 0
-8 -4 -11 -10z"/>
<path d="M9890 5646 c0 -2 8 -10 18 -17 15 -13 16 -12 3 4 -13 16 -21 21 -21
13z"/>
<path d="M9930 5571 c0 -6 4 -13 10 -16 6 -3 7 1 4 9 -7 18 -14 21 -14 7z"/>
<path d="M10090 5509 c0 -5 -4 -8 -9 -4 -5 3 -13 0 -17 -6 -4 -7 -3 -9 4 -5 5
3 12 2 14 -4 2 -6 9 -1 16 10 7 12 8 20 2 20 -5 0 -10 -5 -10 -11z"/>
<path d="M10290 5510 c8 -5 20 -10 25 -10 6 0 3 5 -5 10 -8 5 -19 10 -25 10
-5 0 -3 -5 5 -10z"/>
<path d="M10455 5500 c-3 -5 -1 -10 4 -10 6 0 11 5 11 10 0 6 -2 10 -4 10 -3
0 -8 -4 -11 -10z"/>
<path d="M10028 5489 c-10 -5 -18 -14 -18 -19 0 -17 15 -11 28 10 14 23 13 23
-10 9z"/>
<path d="M10138 5469 c9 -10 17 -19 17 -19 0 0 1 8 1 18 0 10 -8 19 -17 19
-16 2 -17 0 -1 -18z"/>
<path d="M10196 5473 c-6 -14 -5 -15 5 -6 7 7 10 15 7 18 -3 3 -9 -2 -12 -12z"/>
<path d="M10062 5447 c-7 -8 -9 -17 -5 -20 3 -4 1 -7 -5 -7 -6 0 -14 5 -17 10
-14 23 -33 9 -33 -24 0 -26 4 -33 14 -29 23 9 16 -7 -8 -18 -21 -8 -20 -9 5
-4 21 4 28 2 24 -7 -2 -7 -10 -12 -16 -10 -18 3 -13 -6 9 -18 18 -9 19 -8 16
17 -2 16 -9 41 -15 57 -6 16 -9 31 -7 34 3 3 9 -4 12 -14 4 -10 16 -28 27 -39
19 -17 20 -17 14 -1 -4 10 -7 20 -7 22 0 3 -4 2 -10 -1 -5 -3 -10 -1 -10 6 0
6 8 9 19 6 10 -2 25 -1 32 4 12 7 11 9 -1 9 -13 0 -13 1 0 10 9 6 10 10 3 10
-6 0 -15 -5 -18 -10 -4 -6 -11 -7 -17 -4 -6 4 -5 9 3 15 7 4 11 11 8 14 -4 3
-11 -1 -17 -8z"/>
<path d="M10275 5450 c-3 -6 1 -7 9 -4 18 7 21 14 7 14 -6 0 -13 -4 -16 -10z"/>
<path d="M9970 5415 c0 -19 2 -35 4 -35 2 0 6 16 8 35 2 19 0 35 -4 35 -4 0
-8 -16 -8 -35z"/>
<path d="M10195 5440 c3 -5 11 -10 16 -10 6 0 7 5 4 10 -3 6 -11 10 -16 10 -6
0 -7 -4 -4 -10z"/>
<path d="M10160 5430 c0 -5 5 -10 11 -10 5 0 7 5 4 10 -3 6 -8 10 -11 10 -2 0
-4 -4 -4 -10z"/>
<path d="M10540 5423 c0 -10 4 -14 8 -8 11 15 39 17 62 5 13 -7 20 -7 20 0 0
6 24 10 56 10 31 0 53 -4 49 -9 -3 -5 -1 -13 5 -16 6 -4 9 -1 8 7 -2 7 7 14
19 16 21 3 22 0 26 -90 l3 -93 2 98 2 97 -130 0 c-117 0 -130 -2 -130 -17z"/>
<path d="M10225 5421 c-3 -5 -2 -12 3 -15 5 -3 9 1 9 9 0 17 -3 19 -12 6z"/>
<path d="M10310 5421 c0 -7 -5 -9 -12 -5 -7 5 -8 3 -3 -5 5 -9 10 -10 18 -2 6
6 8 14 4 18 -4 3 -7 1 -7 -6z"/>
<path d="M10675 5393 c0 -12 4 -25 8 -29 10 -10 58 17 51 28 -3 5 -12 1 -19
-9 -17 -23 -30 -11 -17 14 8 15 7 19 -7 19 -12 0 -17 -8 -16 -23z"/>
<path d="M10575 5399 c-3 -4 2 -6 10 -5 21 3 28 13 10 13 -9 0 -18 -4 -20 -8z"/>
<path d="M10451 5391 c-8 -5 -9 -11 -3 -15 5 -3 12 1 16 9 6 17 6 18 -13 6z"/>
<path d="M10186 5382 c-3 -6 -1 -14 5 -17 15 -10 25 3 12 16 -7 7 -13 7 -17 1z"/>
<path d="M10170 5335 c7 -8 16 -13 20 -10 5 3 10 0 12 -7 3 -8 7 -6 11 4 4 13
1 16 -14 13 -10 -2 -19 0 -19 6 0 5 -5 9 -11 9 -8 0 -8 -5 1 -15z"/>
<path d="M9971 5314 c0 -11 3 -14 6 -6 3 7 2 16 -1 19 -3 4 -6 -2 -5 -13z"/>
<path d="M10006 5305 c5 -11 0 -18 -15 -22 -18 -5 -21 -12 -20 -57 0 -28 3
-45 6 -38 2 6 9 10 14 6 15 -9 10 -22 -8 -27 -10 -3 33 -5 95 -6 100 -1 112 1
112 17 0 14 -2 15 -10 2 -8 -13 -10 -12 -10 4 0 12 -5 16 -15 13 -8 -4 -17 -2
-20 3 -4 6 -12 10 -18 9 -9 0 -9 -2 0 -5 15 -7 5 -34 -12 -34 -20 0 -23 33 -5
48 13 12 13 13 -2 8 -20 -6 -23 6 -8 34 7 13 6 19 -6 24 -8 3 -12 11 -8 17 4
8 0 8 -15 0 -11 -7 -21 -9 -21 -5 0 3 -7 1 -15 -6 -13 -11 -14 -10 -10 3 4 8
2 18 -4 22 -7 4 -8 0 -5 -10z m64 -35 c0 -17 -3 -19 -19 -11 -10 6 -22 7 -26
3 -5 -4 -5 -2 -1 5 4 7 14 9 23 6 11 -4 14 -3 9 5 -4 7 -2 12 3 12 6 0 11 -9
11 -20z m-75 -10 c3 -5 1 -10 -4 -10 -6 0 -11 5 -11 10 0 6 2 10 4 10 3 0 8
-4 11 -10z m69 -71 c-2 -4 2 -10 8 -12 7 -3 -5 -6 -27 -6 -35 0 -38 1 -23 13
18 14 50 18 42 5z m96 -11 c0 -4 -7 -8 -15 -8 -8 0 -15 4 -15 8 0 5 7 9 15 9
8 0 15 -4 15 -9z"/>
<path d="M10385 5310 c3 -5 8 -10 11 -10 2 0 4 5 4 10 0 6 -5 10 -11 10 -5 0
-7 -4 -4 -10z"/>
<path d="M10443 5298 c1 -10 2 -18 4 -18 1 0 7 8 12 18 7 14 6 19 -4 19 -7 0
-13 -9 -12 -19z"/>
<path d="M10201 5299 c-1 -4 6 -20 14 -35 8 -16 15 -24 15 -17 0 6 3 19 7 29
5 13 3 16 -10 11 -8 -3 -18 -1 -21 6 -2 7 -5 9 -5 6z"/>
<path d="M10650 5265 c0 -8 4 -15 10 -15 5 0 7 7 4 15 -4 8 -8 15 -10 15 -2 0
-4 -7 -4 -15z"/>
<path d="M10130 5253 c0 -8 -7 -10 -17 -6 -17 6 -17 5 0 -11 21 -21 42 -10 27
14 -6 10 -10 11 -10 3z"/>
<path d="M10174 5253 c3 -4 -1 -15 -11 -25 -15 -17 -15 -18 3 -18 11 0 29 -7
41 -15 13 -9 24 -11 28 -6 3 5 1 12 -5 16 -5 3 -10 3 -10 -2 0 -4 -5 0 -11 9
-6 11 -16 15 -27 11 -15 -6 -15 -5 -3 10 7 9 18 14 25 10 6 -3 7 -2 3 2 -4 5
-15 10 -23 11 -9 1 -13 0 -10 -3z"/>
<path d="M10516 5245 c-11 -8 -16 -15 -10 -15 5 0 18 7 28 15 11 8 16 15 10
15 -5 0 -18 -7 -28 -15z"/>
<path d="M10765 5250 c-3 -5 -1 -10 4 -10 6 0 11 5 11 10 0 6 -2 10 -4 10 -3
0 -8 -4 -11 -10z"/>
<path d="M10451 5231 c-8 -5 -9 -11 -3 -15 5 -3 12 1 16 9 6 17 6 18 -13 6z"/>
<path d="M10680 5229 c0 -5 5 -7 10 -4 6 3 10 8 10 11 0 2 -4 4 -10 4 -5 0
-10 -5 -10 -11z"/>
<path d="M10696 5211 c-19 -7 -19 -8 2 -13 15 -4 22 -2 22 8 0 8 -1 14 -2 13
-2 0 -12 -4 -22 -8z"/>
<path d="M10320 5193 c0 -6 8 -17 18 -24 16 -13 16 -13 2 6 -8 11 -16 22 -17
24 -2 2 -3 0 -3 -6z"/>
<path d="M10789 5198 c-7 -23 -5 -38 5 -38 6 0 12 9 12 20 0 16 -13 29 -17 18z"/>
<path d="M10394 5178 c-4 -7 -4 -10 1 -6 4 4 15 2 24 -5 14 -11 14 -10 2 6
-16 20 -18 21 -27 5z"/>
<path d="M10457 5184 c-3 -3 -3 -13 0 -22 4 -10 2 -13 -5 -8 -7 4 -12 2 -12
-4 0 -6 -4 -9 -8 -6 -5 3 -8 -5 -8 -17 1 -12 -4 -21 -11 -20 -7 2 -10 -4 -6
-13 3 -8 12 -13 19 -10 20 8 17 -4 -3 -20 -16 -12 -15 -12 7 -8 18 4 21 3 11
-4 -10 -7 -5 -9 17 -9 17 1 28 5 25 10 -2 4 -9 4 -15 1 -8 -5 -9 -1 -5 10 4
10 3 15 -3 11 -14 -9 -12 8 3 24 10 11 9 13 -6 7 -13 -4 -17 -2 -15 6 3 7 10
13 16 13 5 0 14 4 19 9 4 5 3 6 -4 2 -9 -5 -11 2 -8 24 4 31 3 34 -8 24z"/>
<path d="M10644 5181 c4 -5 13 -8 21 -7 25 4 25 12 -1 14 -14 1 -23 -2 -20 -7z"/>
<path d="M10593 5165 c0 -8 6 -16 14 -19 11 -4 11 -1 3 14 -13 24 -17 25 -17
5z"/>
<path d="M10690 5165 c-6 -8 -9 -18 -6 -24 4 -5 -3 -12 -14 -16 -11 -3 -20
-12 -20 -18 0 -7 -4 -6 -10 3 -7 11 -10 11 -10 2 0 -7 -5 -10 -10 -7 -6 4 -8
10 -6 14 3 4 -1 8 -9 8 -13 0 -12 -3 1 -18 9 -10 20 -16 25 -14 4 3 11 0 14
-6 4 -5 14 -8 24 -4 12 5 13 3 5 -5 -6 -6 -29 -18 -50 -25 -22 -8 -31 -14 -22
-15 9 0 28 4 43 10 17 7 24 7 20 0 -4 -6 8 -10 29 -10 20 0 36 5 36 10 0 6 5
10 11 10 5 0 7 -4 4 -10 -3 -5 1 -10 9 -10 9 0 16 5 16 10 0 6 6 5 14 -2 8 -7
12 -16 10 -20 -7 -11 -128 -8 -141 4 -9 7 -13 7 -13 -1 0 -8 -53 -11 -186 -10
-102 1 -188 -2 -191 -5 -4 -3 183 -6 415 -6 l422 0 0 55 0 56 -154 -3 c-122
-2 -152 0 -144 9 7 9 5 15 -8 20 -11 3 -23 12 -27 20 -7 11 -13 10 -32 -4 -32
-23 -32 -35 0 -23 14 5 31 7 39 4 21 -8 8 -40 -17 -41 -17 -2 -18 0 -7 7 18
11 8 22 -14 14 -9 -3 -16 -15 -16 -25 0 -18 -1 -18 -18 -1 -11 9 -16 22 -12
27 8 11 20 55 15 55 -1 0 -8 -7 -15 -15z m95 -85 c3 -5 1 -10 -4 -10 -6 0 -11
5 -11 10 0 6 2 10 4 10 3 0 8 -4 11 -10z m-78 -26 c-3 -3 -12 -4 -19 -1 -8 3
-5 6 6 6 11 1 17 -2 13 -5z"/>
<path d="M10213 5163 c9 -2 23 -2 30 0 6 3 -1 5 -18 5 -16 0 -22 -2 -12 -5z"/>
<path d="M10306 5134 c-5 -13 -9 -14 -21 -4 -10 9 -15 9 -15 1 0 -10 5 -12 25
-11 3 1 13 -6 21 -15 9 -8 20 -15 26 -15 6 0 2 8 -10 18 -16 14 -18 22 -10 30
8 8 9 12 1 12 -6 0 -14 -7 -17 -16z"/>
<path d="M10391 5143 c-1 -6 -8 -13 -18 -15 -14 -3 -14 -5 2 -18 11 -8 16 -10
12 -3 -4 6 -2 13 4 15 7 2 9 11 6 19 -3 7 -6 9 -6 2z"/>
<path d="M10516 5130 c5 -8 9 -19 9 -25 0 -5 8 -11 18 -13 9 -2 17 1 17 7 0 6
5 11 11 11 5 0 7 -5 4 -10 -7 -11 11 -40 25 -40 3 0 7 6 7 14 0 8 -6 12 -14 9
-9 -3 -11 0 -7 10 3 10 -3 20 -16 27 -15 8 -20 8 -16 1 11 -17 -5 -13 -27 7
-14 12 -18 12 -11 2z"/>
<path d="M10488 5085 c6 -35 19 -40 18 -8 -1 14 -6 28 -12 30 -7 2 -10 -6 -6
-22z"/>
<path d="M10294 5080 c0 -12 6 -16 16 -12 12 4 13 3 2 -9 -11 -12 -15 -11 -28
5 -8 11 -14 18 -15 15 0 -2 -2 -12 -4 -21 -2 -14 4 -18 26 -18 16 0 29 5 29
11 0 8 6 7 17 -2 15 -13 15 -11 -1 13 -21 33 -42 42 -42 18z"/>
<path d="M10528 5073 c7 -3 16 -2 19 1 4 3 -2 6 -13 5 -11 0 -14 -3 -6 -6z"/>
<path d="M10375 5050 c-19 -8 -19 -9 3 -9 12 -1 22 4 22 9 0 6 -1 10 -2 9 -2
0 -12 -4 -23 -9z"/>
<path d="M5000 2645 l0 -575 170 0 170 0 0 575 0 575 -170 0 -170 0 0 -575z"/>
<path d="M9700 3091 l0 -109 -50 2 -50 3 2 -209 3 -209 193 -2 192 -2 0 208 0
207 -45 0 -45 0 0 110 0 110 -100 0 -100 0 0 -109z"/>
<path d="M10762 2943 l3 -278 173 -1 172 -2 0 279 0 279 -175 0 -175 0 2 -277z"/>
<path d="M11935 3211 c-3 -2 -5 -260 -5 -573 l0 -568 168 2 167 3 3 573 2 574
-165 -3 c-91 -2 -168 -5 -170 -8z"/>
</g>
</svg>
