<svg width="530" height="102" viewBox="0 0 530 102" fill="none" xmlns="http://www.w3.org/2000/svg">
<g opacity="0.25">
<path d="M265 0.5C338.164 0.5 404.394 4.03924 452.324 9.75977C476.293 12.6204 495.667 16.0245 509.039 19.7979C515.729 21.6856 520.888 23.6582 524.364 25.6855C527.881 27.7369 529.5 29.7402 529.5 31.6279C529.5 33.5156 527.881 35.519 524.364 37.5703C520.888 39.5977 515.729 41.5702 509.039 43.458C495.667 47.2314 476.293 50.6354 452.324 53.4961C404.394 59.2166 338.164 62.7559 265 62.7559C191.836 62.7559 125.606 59.2166 77.6758 53.4961C53.7073 50.6354 34.3334 47.2314 20.9609 43.458C14.2709 41.5702 9.11174 39.5977 5.63574 37.5703C2.11864 35.519 0.500013 33.5156 0.5 31.6279C0.5 29.7402 2.11863 27.7369 5.63574 25.6855C9.11174 23.6582 14.2709 21.6856 20.9609 19.7979C34.3334 16.0245 53.7073 12.6204 77.6758 9.75977C125.606 4.03924 191.836 0.5 265 0.5Z" stroke="white"/>
<path d="M265 9.98828C338.164 9.98828 404.394 13.5275 452.324 19.248C476.293 22.1087 495.667 25.5128 509.039 29.2861C515.729 31.1739 520.888 33.1465 524.364 35.1738C527.881 37.2252 529.5 39.2285 529.5 41.1162C529.5 43.0039 527.881 45.0072 524.364 47.0586C520.888 49.086 515.729 51.0585 509.039 52.9463C495.667 56.7197 476.293 60.1237 452.324 62.9844C404.394 68.7049 338.164 72.2441 265 72.2441C191.836 72.2441 125.606 68.7049 77.6758 62.9844C53.7073 60.1237 34.3334 56.7197 20.9609 52.9463C14.2709 51.0585 9.11174 49.086 5.63574 47.0586C2.11864 45.0072 0.500013 43.0039 0.5 41.1162C0.5 39.2285 2.11863 37.2252 5.63574 35.1738C9.11174 33.1465 14.2709 31.1739 20.9609 29.2861C34.3334 25.5128 53.7073 22.1087 77.6758 19.248C125.606 13.5275 191.836 9.98828 265 9.98828Z" stroke="white"/>
<path d="M265 20.2673C338.164 20.2673 404.394 23.8066 452.324 29.5271C476.293 32.3878 495.667 35.7918 509.039 39.5652C515.729 41.453 520.888 43.4255 524.364 45.4529C527.881 47.5042 529.5 49.5075 529.5 51.3953C529.5 53.283 527.881 55.2863 524.364 57.3376C520.888 59.365 515.729 61.3376 509.039 63.2253C495.667 66.9987 476.293 70.4028 452.324 73.2634C404.394 78.984 338.164 82.5232 265 82.5232C191.836 82.5232 125.606 78.984 77.6758 73.2634C53.7073 70.4028 34.3334 66.9987 20.9609 63.2253C14.2709 61.3376 9.11174 59.365 5.63574 57.3376C2.11864 55.2863 0.500013 53.283 0.5 51.3953C0.5 49.5075 2.11863 47.5042 5.63574 45.4529C9.11174 43.4255 14.2709 41.453 20.9609 39.5652C34.3334 35.7918 53.7073 32.3878 77.6758 29.5271C125.606 23.8066 191.836 20.2673 265 20.2673Z" stroke="white"/>
<path d="M265 29.7559C338.164 29.7559 404.394 33.2951 452.324 39.0156C476.293 41.8763 495.667 45.2803 509.039 49.0537C515.729 50.9415 520.888 52.914 524.364 54.9414C527.881 56.9928 529.5 58.9961 529.5 60.8838C529.5 62.7715 527.881 64.7748 524.364 66.8262C520.888 68.8535 515.729 70.8261 509.039 72.7139C495.667 76.4872 476.293 79.8913 452.324 82.752C404.394 88.4725 338.164 92.0117 265 92.0117C191.836 92.0117 125.606 88.4725 77.6758 82.752C53.7073 79.8913 34.3334 76.4872 20.9609 72.7139C14.2709 70.8261 9.11174 68.8535 5.63574 66.8262C2.11864 64.7748 0.500013 62.7715 0.5 60.8838C0.5 58.9961 2.11863 56.9928 5.63574 54.9414C9.11174 52.914 14.2709 50.9415 20.9609 49.0537C34.3334 45.2803 53.7073 41.8763 77.6758 39.0156C125.606 33.2951 191.836 29.7559 265 29.7559Z" stroke="white"/>
<path d="M265 39.2441C338.164 39.2441 404.394 42.7834 452.324 48.5039C476.293 51.3646 495.667 54.7686 509.039 58.542C515.729 60.4298 520.888 62.4023 524.364 64.4297C527.881 66.4811 529.5 68.4843 529.5 70.3721C529.5 72.2598 527.881 74.2631 524.364 76.3145C520.888 78.3418 515.729 80.3144 509.039 82.2021C495.667 85.9755 476.293 89.3796 452.324 92.2402C404.394 97.9608 338.164 101.5 265 101.5C191.836 101.5 125.606 97.9608 77.6758 92.2402C53.7073 89.3796 34.3334 85.9755 20.9609 82.2021C14.2709 80.3144 9.11174 78.3418 5.63574 76.3145C2.11864 74.2631 0.500013 72.2598 0.5 70.3721C0.5 68.4843 2.11863 66.4811 5.63574 64.4297C9.11174 62.4023 14.2709 60.4298 20.9609 58.542C34.3334 54.7686 53.7073 51.3646 77.6758 48.5039C125.606 42.7834 191.836 39.2441 265 39.2441Z" stroke="white"/>
</g>
</svg>
